# xmcd
#
# Track frame offsets: 
#        150
#        6777
#        19299
#        22659
#        63534
#        68332
#        75641
#        86931
#        91924
#        101256
#
# Disc length: 1567 seconds
#
# Revision: 0
# Processed by: cddbd v1.4PL0 Copyright (c) Steve Scherf et al.
# Submitted via: ExactAudioCopy v0.90b4
#
DISCID=68061d0a
DTITLE=Jeff Foxworthy - King Of The Rednecks
DYEAR=1900
DGENRE=Comedy
TTITLE0=Hormonal Change
TTITLE1=Hunting
TTITLE2=Making Chili and Grilling
TTITLE3=Jeff's Redneck Test
TTITLE4=Television Moments
TTITLE5=Strange Love
TTITLE6=Poor Old Fluffy
TTITLE7=Chalk Outlined Body
TTITLE8=Inbred High School
TTITLE9=Southern Alphabet
EXTD=
EXTT0=
EXTT1=
EXTT2=
EXTT3=
EXTT4=
EXTT5=
EXTT6=
EXTT7=
EXTT8=
EXTT9=
PLAYORDER=
